<svg viewBox="0 0 128 128" xmlns="http://www.w3.org/2000/svg" id="technology">
  <style>
    @media (prefers-color-scheme: light) {
      :root, body[data-color-scheme="auto"], body[data-color-scheme="light"] {
        --color-documentation-intro-accent-outer: #333;
        --color-documentation-intro-accent-inner: #fff;
      }
      body[data-color-scheme="dark"] {
        --color-documentation-intro-accent-outer: #fff;
        --color-documentation-intro-accent-inner: #333;
      }
    }
    @media (prefers-color-scheme: dark) {
      :root, body[data-color-scheme="auto"], body[data-color-scheme="dark"] {
        --color-documentation-intro-accent-outer: #fff;
        --color-documentation-intro-accent-inner: #333;
      }
      body[data-color-scheme="light"] {
        --color-documentation-intro-accent-outer: #333;
        --color-documentation-intro-accent-inner: #fff;
      }
    }
  </style>
  <path d="M7,46.84,62.66,0,121,46.84v.33L64,92,7,47.17Z" style="fill: var(--color-documentation-intro-accent-outer);"/>
  <path d="m64.33,92.04h.33c.1,5.6,.1,9.76,0,12.46s-.18,2.7-.33,0l-57.33-45.06v-12.44z" fill="#40c4ff"/>
  <path d="m64.66,116.2-.33.4-57.33-45.06v-12.44l57.33,45h.33z" fill="#3dc4ff"/>
  <path d="m64.66,116.2-.33.4-57.33-45.06v-12.44l57.33,45h.33z" fill="#fff" fill-opacity=".25"/>
  <path d="m64.66,127.7-.33.3-57.33-45.04v-11.76l57.33,45,.33-.3z" fill="#3dc4ff"/>
  <path d="m64.66,127.7-.33.3-57.33-45.04v-11.76l57.33,45,.33-.3z" fill="#fff" fill-opacity=".5"/>
  <path d="m64,92.04v12.46l57-45.06v-12.44z" fill="#e040fb"/>
  <path d="m121,71.54v-12.44l-57,45v12.5z" fill="#e040fb"/>
  <path d="m121,71.54v-12.44l-57,45v12.5z" fill="#fff" fill-opacity=".25"/>
  <path d="m121,83.3v-12.1l-57,45v11.8z" fill="#e040fb"/>
  <path d="m121,83.3v-12.1l-57,45v11.8z" fill="#fff" fill-opacity=".5"/>
  <path d="m58.23 14.96c-0.83 1.57-0.79 2.76 0.13 3.6 0.92 0.81 2.24 1.56 3.98 2.22 3.37 1.45 4.5 3.41 3.37 5.9-5.73 2.72-8.5 5-8.34 6.86-5.91 3.5-6.54 6.23-2 8.14 0.63 0.35 0.58 0.62-0.21 0.88-8.4 3.86-12.7 8.41-12.88 13.66 0 2.53 0.58 4.62 1.74 6.28l1.76 2.97c0.42 0.73 0.72 1.68 0.89 2.88 0.15-0.7 0-1.69-0.31-2.98-0.43-1.17-0.77-1.88-1.05-2.11 2.98 1.14 5.91 2.59 8.75 4.33 3.29 1.97 5.45 4.02 6.47 6.16 0.94 1.29 2.18 1.34 3.69 0.18 1.06-0.62 1.86-1.46 2.38-2.48 0.52-1.04-0.38-1.56-2.7-1.56-1.23-2.72-2.62-5.06-4.17-7.04 3.32 2.94 5.44 4.47 6.35 4.56 1.45-0.65 2.76-1.51 3.91-2.56 1.19-1.26 0.35-1.9-2.66-2.04-1.73-1.71-3.72-3.41-6.07-5.03 1.64-2.85 3.49-4.6 5.59-5.21 3.66 2.15 6.61 4.29 8.85 6.44 0.62 1.47 1.49 2.44 2.57 2.91 1.29-0.19 2.28-0.43 2.99-0.73 2.66-1.02 2.17-2.03-1.54-3.12-0.38 0.21-0.72 0-1.07-0.75 3.85-1.34 5.37-2.35 4.54-3.02-1.43-0.43-2.14-1.22-2.16-2.31 0.22-1.28-0.59-2.24-2.41-2.86-1.22 0.22-3.03-0.68-5.4-2.69-2.16-1.86-3.55-3.81-4.11-5.91-0.81-2.73-0.25-5.66 1.68-8.8 0.45-0.73 0.98-1.48 1.58-2.23 4.29-4.93 5.31-8.56 3.07-10.87l-1.74 5.63c0.1-2.02-0.26-3.25-1.01-3.7-0.23 2.09-0.53 3.65-0.93 4.68-0.24 0.48-0.44 0.54-0.63 0.17-1.55-4.15-3.99-6.41-7.3-6.8-2.16-0.48-3.56-1.03-4.21-1.64-0.88-0.94 0.1-2.17 2.72-3.57-1.05 0-1.46-0.32-1.22-0.92-0.28 0-0.41 0.21-0.37 0.51-1.23 0.62-2.07 1.3-2.54 2.03zm13.55 35.91c2.63 0.96 3.57 1.91 2.8 2.85-0.43-0.62-1.34-1.59-2.8-2.85z" style="fill: var(--color-documentation-intro-accent-inner);"/>
</svg>
