<svg viewBox="0 0 128 128" xmlns="http://www.w3.org/2000/svg" id="technology">
  <style>
    @media (prefers-color-scheme: light) {
      :root, body[data-color-scheme="auto"], body[data-color-scheme="light"] {
        --color-documentation-intro-accent-outer: #000;
        --color-documentation-intro-accent-inner: #fff;
      }
      body[data-color-scheme="dark"] {
        --color-documentation-intro-accent-outer: #fff;
        --color-documentation-intro-accent-inner: #000;
      }
    }
    @media (prefers-color-scheme: dark) {
      :root, body[data-color-scheme="auto"], body[data-color-scheme="dark"] {
        --color-documentation-intro-accent-outer: #fff;
        --color-documentation-intro-accent-inner: #000;
      }
      body[data-color-scheme="light"] {
        --color-documentation-intro-accent-outer: #000;
        --color-documentation-intro-accent-inner: #fff;
      }
    }
  </style>
  <title>PostgresNIO</title>
  <linearGradient id="a" x1="0" x2="1" y1="0.5" y2="0.5">
    <stop stop-color="#3dc4ff" offset="0"/>
    <stop stop-color="#e040fb" offset="0.75"/>
  </linearGradient>
  <path style="fill: #40c4ff; fill-opacity: 1.0;" d="m64.33,92.04c.8,1.91.2,5.24.4,7.7-0,1.86.1,6.16-.3,6.26.45-1.7-1.17-2.2-2.19-3.1-18.41-14.51-36.83-28.99-55.24-43.46v-12.44c19.11,15.01,38.22,30.03,57.33,45.04z"/>
  <path style="fill: #3dc4ff; fill-opacity: 1.0;" d="m64.66,116.2c-.73.7-1.59-.9-2.38-1.2-18.43-14.5-36.85-28.99-55.28-43.46v-12.44c19.11,15.01,38.22,30.03,57.33,45,.77.2.11,1.9.33,2.6v9.5z"/>
  <path style="fill: #3dc4ff; fill-opacity: 1.0;" d="m64.66,127.7c-.71.7-1.58-1-2.37-1.3-18.43-14.5-36.86-28.96-55.29-43.44v-11.76c19.11,15.01,38.22,30,57.33,45,.69-.6.17,1.7.33,2.3v9.2z"/>
  <path style="fill: #e040fb; fill-opacity: 1.0;" d="m64,92.04v12.46c19-15.04,38-30.05,57-45.06v-12.44c-19,15.01-38,30.03-57,45.04z"/>
  <path style="fill: #e040fb; fill-opacity: 1.0;" d="m121,71.54v-12.44c-19,15.01-38,30.03-57,45v12.5c19-15,38-30.05,57-45.06z"/>
  <path style="fill: #e040fb; fill-opacity: 1.0;" d="m121,83.3v-12.1c-19,15.01-38,30-57,45v11.8l57-44.7z"/>
  <path style="fill: #ffffff; fill-opacity: .25;" d="m64.66,116.2c-.73.7-1.59-.9-2.38-1.2-18.43-14.5-36.85-28.99-55.28-43.46v-12.44c19.11,15.01,38.22,30.03,57.33,45,.77.2.11,1.9.33,2.6v9.5z"/>
  <path style="fill: #ffffff; fill-opacity: 0.5;" d="m64.66,127.7c-.71.7-1.58-1-2.37-1.3-18.43-14.5-36.86-28.96-55.29-43.44v-11.76c19.11,15.01,38.22,30,57.33,45,.69-.6.17,1.7.33,2.3v9.2z"/>
  <path style="fill: #ffffff; fill-opacity: .25;" d="m121,71.54v-12.44c-19,15.01-38,30.03-57,45v12.5c19-15,38-30.05,57-45.06z"/>
  <path style="fill: #ffffff; fill-opacity: 0.5;" d="m121,83.3v-12.1c-19,15.01-38,30-57,45v11.8l57-44.7z"/>
  <path style="fill: var(--color-documentation-intro-accent-outer);" d="m7,46.84,55.66-46.84,58.34,46.84v.33l-57,44.83-57-44.83z"/>
  <path style="fill: var(--color-documentation-intro-accent-inner); stroke: url(#a); stroke-width: 1.25;" d="m58.23,14.97c-.83,1.56-.79,2.75.14,3.59.9.82,2.23,1.56,3.97,2.22,3.37,1.45,4.49,3.41,3.36,5.9-5.72,2.71-8.5,5-8.34,6.86-5.89,3.49-6.56,6.21-1.99,8.14.63.35.56.64-.21.88-8.41,3.86-12.7,8.41-12.88,13.67,0,2.51.58,4.6,1.73,6.27l1.77,2.97c.42.73.72,1.69.89,2.88.14-.7,0-1.69-.31-2.97-.42-1.18-.78-1.89-1.06-2.12,2.99,1.14,5.91,2.59,8.76,4.34,3.3,1.95,5.45,4,6.46,6.15.95,1.29,2.19,1.35,3.7.18,1.06-.63,1.86-1.45,2.39-2.48.51-1.04-.39-1.56-2.71-1.56-1.22-2.72-2.61-5.07-4.18-7.04,3.32,2.94,5.44,4.47,6.36,4.56,1.46-.65,2.76-1.5,3.91-2.57,1.23-1.21.34-1.89-2.66-2.04-1.7-1.73-3.72-3.4-6.07-5.02,1.64-2.86,3.49-4.6,5.57-5.23,3.66,2.14,6.61,4.29,8.86,6.44.61,1.47,1.48,2.43,2.59,2.88,1.29-.19,2.28-.44,2.99-.73,2.66-1.02,2.15-2.06-1.54-3.12-.36.23-.71,0-1.07-.74,3.85-1.35,5.37-2.36,4.54-3.03-1.43-.44-2.15-1.21-2.15-2.32.21-1.28-.59-2.24-2.42-2.86-1.22.22-3.02-.68-5.4-2.69-2.15-1.86-3.52-3.83-4.11-5.9-.8-2.73-.24-5.67,1.68-8.8.46-.74.99-1.48,1.58-2.24,4.29-4.93,5.32-8.55,3.08-10.86l-1.74,5.63c.1-2.02-.27-3.26-1.01-3.7-.23,2.09-.54,3.64-.93,4.67-.24.48-.45.54-.63.18-1.55-4.16-3.99-6.42-7.3-6.8-2.17-.49-3.57-1.04-4.21-1.64-.84-.98.1-2.18,2.72-3.58-1.05,0-1.46-.32-1.22-.91-.28,0-.41.21-.38.5-1.23.62-2.07,1.3-2.53,2.04zm13.55,35.9c2.63.96,3.57,1.91,2.81,2.85-.44-.61-1.38-1.56-2.81-2.85z"/>
</svg>
