<svg viewBox="0 0 128 128" xmlns="http://www.w3.org/2000/svg" id="technology">
  <defs>
  <style>
    @media(prefers-color-scheme:dark){:root{--color-logo-shape:#000;--color-logo-base:#fff}}
    body[data-color-scheme="dark"]{--color-logo-shape:#000;--color-logo-base:#fff}
  </style>
  <path id="d" d="m6,47l58-47,58,47-58,45z"/>
  <path id="s" d="m6,47v12l58,45v-12z"/>
  <path id="h" d="m61.2,12.4c-.3.6.1.9,1.2.9-2.6,1.4-3.6,2.6-2.7,3.6,2.7,2.6,8.3-.2,11.5,8.5.5,1,1.2-1.5,1.5-4.9.8.5,1.1,1.7,1,3.7,0,0,1.7-5.8,1.8-5.6,3.6,6.2-2.3,9.3-4.7,13.1-6.8,11.1,5.8,17.7,7.8,17.4,4.5,1.5.6,3.9,4.6,5.2.8.7-.7,1.7-4.5,3,.3.8.7,1,1,.8,6.8,1.9,1.1,3.5-1.4,3.8-1.1-.4-2-1.4-2.6-2.9-2.3-2.1-5.2-4.3-8.9-6.4-2.1.6-3.9,2.3-5.6,5.2,2.4,1.6,4.4,3.3,6.1,5,3,.2,3.9.8,2.7,2-1.2,1.1-2.5,1.9-3.9,2.6-.9.1-3.1-1.6-6.4-4.5,1.6,1.9,3,4.3,4.2,7,5.9,0,.9,3.7.3,4-1.5,1.2-2.7,1.1-3.7-.2-2.6-5.5-13.4-9.8-15.2-10.5.7.6,1.7,3.6,1.4,5.1-.4-2.2-1.4-4-2.7-5.8-1-1.6-7-11.6,11.2-20,3.3-1-9.4-2.1,2.2-9,.1-1.8,2.6-4.1,8.3-6.8,1.9-5.1-4.4-5.7-7.3-8.1-1.1-1-1.5-3.7,2.4-5.7,0,0,.1-.5.4-.5zm13.4,41.3c.7-.9-.2-1.9-2.8-2.8,1.4,1.3,2.4,2.2,2.8,2.8z"/>
  </defs>
  <use href="#s" fill="#9ee0ff"/>
  <use href="#s" fill="#6bd0ff" y="12"/>
  <use href="#s" fill="#38c0ff" y="24"/>
  <g transform="matrix(-1 0 0 1 128 0)">
    <use href="#s" fill="#f29eff"/>
    <use href="#s" fill="#eb6bff" y="12"/>
    <use href="#s" fill="#e438ff" y="24"/>
  </g>
  <use href="#d" style="fill:var(--color-logo-base,#000)"/>
  <use href="#h" style="fill:var(--color-logo-shape,#fff)"/>
</svg>
