<svg viewBox="0 0 128 128" xmlns="http://www.w3.org/2000/svg" id="technology">
  <style>
    @media (prefers-color-scheme: light) {
      :root, body[data-color-scheme="auto"], body[data-color-scheme="light"] {
        --color-documentation-intro-accent-outer: #000;
        --color-documentation-intro-accent-inner: #fff;
      }
      body[data-color-scheme="dark"] {
        --color-documentation-intro-accent-outer: #fff;
        --color-documentation-intro-accent-inner: #000;
      }
    }
    @media (prefers-color-scheme: dark) {
      :root, body[data-color-scheme="auto"], body[data-color-scheme="dark"] {
        --color-documentation-intro-accent-outer: #fff;
        --color-documentation-intro-accent-inner: #000;
      }
      body[data-color-scheme="light"] {
        --color-documentation-intro-accent-outer: #000;
        --color-documentation-intro-accent-inner: #fff;
      }
    }
  </style>
  <title>PostgresNIO</title>
  <defs>
    <path id="diam"  d="M 0,0 l 55.5,-47 58.5,47 -57, 45 z" />
    <path id="seg"   d="M 0,0 l  0.0, 12 57.0,45   0,-12 z" />
    <path id="shape" d="
      M 60.76, 12.93
      c  0   , -0.29   0.10, -0.50   0.38, -0.50    -0.24,  0.59   0.17,  0.91   1.22,  0.91
        -2.62,  1.40  -3.56,  2.60  -2.72,  3.58     2.75,  2.58   8.29, -0.21  11.51,  8.44
         0.51,  1.02   1.18, -1.44   1.56, -4.85     0.74,  0.44   1.11,  1.68   1.01,  3.70
         0   ,  0      1.66, -5.77   1.74, -5.63     3.60,  6.16  -2.31,  9.29  -4.66, 13.10
        -6.79, 11.08   5.83, 17.75   7.83, 17.39     4.47,  1.52   0.53,  3.94   4.57,  5.18
         0.83,  0.67  -0.69,  1.68  -4.54,  3.03     0.36,  0.74   0.71,  0.97   1.07,  0.74
         6.79,  1.95   1.07,  3.48  -1.45,  3.85    -1.11, -0.45  -1.98, -1.41  -2.59, -2.88
        -2.25, -2.15  -5.20, -4.30  -8.86, -6.44    -2.08,  0.63  -3.93,  2.37  -5.57,  5.23
         2.35,  1.62   4.37,  3.29   6.07,  5.02     3   ,  0.15   3.89,  0.83   2.66,  2.04
        -1.15,  1.07  -2.45,  1.92  -3.91,  2.57    -0.92, -0.10  -3.04, -1.62  -6.36, -4.56
         1.57,  1.97   2.96,  4.32   4.18,  7.04     5.92,  0      0.88,  3.71   0.32,  4.04
        -1.51,  1.17  -2.75,  1.11  -3.70, -0.18    -2.58, -5.48 -13.44, -9.81 -15.22,-10.49
         0.67,  0.55   1.68,  3.56   1.37,  5.09    -0.41, -2.19  -1.41, -4     -2.66, -5.85
        -1.07, -1.56  -7.03,-11.60  11.15,-19.94     3.36, -1.05  -9.42, -2.13   2.20, -9.02
        -0.16, -1.86   2.62, -4.15   8.34, -6.86     1.87, -5.04  -4.45, -5.70  -7.33, -8.12
        -1.05, -0.95  -1.49, -3.68   2.39, -5.63 zM 74.59  53.72
      c  0.76, -0.94  -0.18, -1.89  -2.81, -2.85     1.43,  1.29   2.37,  2.24   2.81,  2.85 z" />
  </defs>
  <g transform="translate(7 47)">
    <use href="#seg" transform="translate(0  0)" fill="hsl(199, 99%, 61%)" />
    <use href="#seg" transform="translate(0 12)" fill="hsl(199, 99%, 71%)" />
    <use href="#seg" transform="translate(0 24)" fill="hsl(199, 99%, 81%)" />
    <g transform="translate(114 0) scale(-1 1)">
      <use href="#seg" transform="translate(0  0)" fill="hsl(292, 96%, 61%)" />
      <use href="#seg" transform="translate(0 12)" fill="hsl(292, 96%, 71%)" />
      <use href="#seg" transform="translate(0 24)" fill="hsl(292, 96%, 81%)" />
    </g>
    <use href="#diam" style="fill: var(--color-documentation-intro-accent-outer);" />
  </g>
  <use href="#shape" style="fill: var(--color-documentation-intro-accent-inner);" />
</svg>
